<!-- spaces wordmark — Kinra canonical grid (300 unit height,
     86 stems, 83 bars, 75 letter gap, shared blue gradient). -->
<svg xmlns="http://www.w3.org/2000/svg" viewBox="0 0 1851 300">
<defs><linearGradient id="spb" x1="0" y1="0" x2="0" y2="300" gradientUnits="userSpaceOnUse">
<stop offset="0" stop-color="#73c6e5"/><stop offset=".25" stop-color="#52b5dc"/><stop offset=".5" stop-color="#3a9fc8"/><stop offset=".75" stop-color="#2b82ae"/><stop offset="1" stop-color="#1a6490"/>
</linearGradient></defs>
<g fill="url(#spb)" fill-rule="evenodd">
<path d="M0 0H246V83H86V136H246V300H0V219H160V164H0Z"/>
<path d="M321 300V0H567V164H407V300ZM407 83V136H481V83Z"/>
<path d="M642 300V83H722V0H888V300H802V219H728V300ZM728 83V136H802V83Z"/>
<path d="M963 300V0H1209V83H1049V219H1209V300Z"/>
<path d="M1284 300V0H1530V83H1370V136H1450V219H1530V300Z"/>
<path d="M1605 0H1851V83H1691V136H1851V300H1605V219H1765V164H1605Z"/>
</g>
</svg>
