<!-- Kinra canonical wordmark (2026 flat redesign). -->
<svg xmlns="http://www.w3.org/2000/svg" viewBox="0 0 1610 300">
<defs><linearGradient id="kb" x1="0" y1="0" x2="0" y2="300" gradientUnits="userSpaceOnUse">
<stop offset="0" stop-color="#73c6e5"/><stop offset=".25" stop-color="#52b5dc"/><stop offset=".5" stop-color="#3a9fc8"/><stop offset=".75" stop-color="#2b82ae"/><stop offset="1" stop-color="#1a6490"/>
</linearGradient></defs>
<g fill="url(#kb)" fill-rule="evenodd">
<path d="M0 300V0H86V136H160V0H246V164H166V219H246V300H160V219H86V300Z"/>
<path d="M401 83H321V0H567V83H487V219H567V300H321V219H401Z"/>
<path d="M642 300V0H728V83H808V136H882V0H968V300H882V219H802V164H728V300Z"/>
<path d="M1043 300V0H1289V164H1209V219H1289V300H1203V219H1129V300ZM1129 83V136H1203V83Z"/>
<path d="M1364 300V83H1444V0H1610V300H1524V219H1450V300ZM1450 83V136H1524V83Z"/>
</g>
</svg>
